<svg width="4616" height="1054" viewBox="0 0 4616 1054" fill="none" xmlns="http://www.w3.org/2000/svg">
<path d="M512.33 1040L306.018 652.468C263.269 654.327 225.166 655.256 191.71 655.256H152.678V1040H0.732002V15.41H233.53C351.555 15.41 448.671 40.0373 524.876 89.2919C601.081 137.617 639.184 216.611 639.184 326.272C639.184 395.043 622.921 454.52 590.394 504.704C558.797 553.959 511.401 592.061 448.206 619.012L692.156 1040H512.33ZM251.652 528.402C342.727 528.402 404.992 508.886 438.448 469.854C472.833 429.893 490.026 382.497 490.026 327.666C490.026 205.923 408.709 145.052 246.076 145.052H152.678V528.402H251.652ZM1041.15 1053.94C983.527 1053.94 930.091 1040.46 880.836 1013.51C832.511 985.634 793.479 946.602 763.74 896.418C734.931 845.305 720.526 785.827 720.526 717.986C720.526 651.074 733.072 592.526 758.164 542.342C784.185 492.158 820.894 453.126 868.29 425.246C915.686 397.366 971.446 383.426 1035.57 383.426C1072.74 383.426 1107.59 389.931 1140.12 402.942C1172.65 415.953 1200.06 432.216 1222.37 451.732C1244.67 470.319 1259.54 488.905 1266.97 507.492L1269.76 400.154H1413.34V1040H1271.16L1268.37 927.086C1252.57 960.542 1223.76 990.281 1181.94 1016.3C1140.12 1041.39 1093.19 1053.94 1041.15 1053.94ZM1066.24 928.48C1119.21 928.48 1163.82 910.358 1200.06 874.114C1236.31 836.941 1254.43 788.615 1254.43 729.138V719.38C1254.43 679.419 1246.06 643.639 1229.34 612.042C1212.61 580.445 1189.84 555.817 1161.03 538.16C1132.22 520.503 1100.62 511.674 1066.24 511.674C1006.76 511.674 960.759 531.19 928.232 570.222C895.705 608.325 879.442 658.044 879.442 719.38C879.442 781.645 895.241 832.294 926.838 871.326C959.365 909.429 1005.83 928.48 1066.24 928.48ZM1430.4 400.154H1601.86L1739.87 688.712L1784.47 804.414L1829.08 688.712L1965.69 400.154H2132.97L1797.02 1040H1767.75L1430.4 400.154Z" fill="#DD4651"/>
<path d="M2390.86 1053.94C2335.1 1053.94 2279.81 1044.18 2224.98 1024.67C2170.15 1005.15 2130.65 983.311 2106.49 959.148L2180.37 826.718C2199.89 844.375 2230.09 862.962 2270.98 882.478C2312.8 901.065 2352.76 910.358 2390.86 910.358C2440.12 910.358 2480.08 898.741 2510.75 875.508C2542.35 852.275 2558.14 820.213 2558.14 779.322C2558.14 747.725 2549.78 720.309 2533.05 697.076C2516.32 673.843 2495.88 654.791 2471.72 639.922C2447.55 624.123 2413.17 605.072 2368.56 582.768C2315.59 556.747 2279.34 537.231 2259.83 524.22C2169.68 463.813 2124.61 380.173 2124.61 273.3C2124.61 185.013 2153.88 117.637 2212.43 71.1699C2270.98 23.7739 2344.86 0.0759282 2434.08 0.0759282C2529.8 0.0759282 2611.12 27.4913 2678.03 82.3219L2604.15 209.176C2586.49 190.589 2561.4 174.791 2528.87 161.78C2497.27 147.84 2463.35 140.87 2427.11 140.87C2380.64 140.87 2343.93 151.557 2316.98 172.932C2290.96 193.377 2277.95 224.045 2277.95 264.936C2277.95 293.745 2286.31 319.767 2303.04 343C2319.77 365.304 2340.68 384.82 2365.77 401.548C2391.79 418.276 2426.64 438.721 2470.32 462.884C2512.14 486.117 2544.2 504.704 2566.51 518.644C2588.81 531.655 2609.72 547.453 2629.24 566.04C2656.19 590.203 2678.03 619.012 2694.76 652.468C2711.48 685.924 2719.85 722.633 2719.85 762.594C2719.85 824.859 2705.44 877.831 2676.63 921.51C2648.75 965.189 2609.72 998.18 2559.54 1020.48C2510.28 1042.79 2454.06 1053.94 2390.86 1053.94ZM3077.26 1053.94C3019.64 1053.94 2966.2 1040.46 2916.95 1013.51C2868.62 985.634 2829.59 946.602 2799.85 896.418C2771.04 845.305 2756.64 785.827 2756.64 717.986C2756.64 651.074 2769.18 592.526 2794.28 542.342C2820.3 492.158 2857.01 453.126 2904.4 425.246C2951.8 397.366 3007.56 383.426 3071.68 383.426C3108.85 383.426 3143.7 389.931 3176.23 402.942C3208.76 415.953 3236.17 432.216 3258.48 451.732C3280.78 470.319 3295.65 488.905 3303.09 507.492L3305.87 400.154H3449.46V1040H3307.27L3304.48 927.086C3288.68 960.542 3259.87 990.281 3218.05 1016.3C3176.23 1041.39 3129.3 1053.94 3077.26 1053.94ZM3102.35 928.48C3155.32 928.48 3199.93 910.358 3236.17 874.114C3272.42 836.941 3290.54 788.615 3290.54 729.138V719.38C3290.54 679.419 3282.18 643.639 3265.45 612.042C3248.72 580.445 3225.95 555.817 3197.14 538.16C3168.33 520.503 3136.73 511.674 3102.35 511.674C3042.87 511.674 2996.87 531.19 2964.34 570.222C2931.82 608.325 2915.55 658.044 2915.55 719.38C2915.55 781.645 2931.35 832.294 2962.95 871.326C2995.48 909.429 3041.94 928.48 3102.35 928.48ZM3568.27 400.154H3718.82V515.856C3739.27 472.177 3769.01 439.186 3808.04 416.882C3848 394.578 3893.54 383.426 3944.65 383.426C4058.96 384.355 4129.12 423.852 4155.15 501.916C4175.59 465.672 4206.26 436.863 4247.15 415.488C4288.04 394.113 4331.25 383.426 4376.79 383.426C4443.7 383.426 4494.35 396.437 4528.74 422.458C4563.12 447.55 4585.89 483.794 4597.04 531.19C4609.13 577.657 4615.17 640.387 4615.17 719.38V1040H4463.22V717.986C4463.22 642.71 4455.32 588.809 4439.52 556.282C4424.65 523.755 4395.38 507.492 4351.7 507.492C4293.15 507.492 4248.54 527.473 4217.88 567.434C4188.14 606.466 4173.27 658.044 4173.27 722.168V1040H4022.72V695.682C4022.72 646.427 4020.86 609.719 4017.14 585.556C4013.42 561.393 4003.2 542.342 3986.47 528.402C3969.74 514.462 3942.79 507.492 3905.62 507.492C3873.09 507.492 3842.43 517.25 3813.62 536.766C3785.74 556.282 3762.97 582.768 3745.31 616.224C3728.58 648.751 3720.22 684.065 3720.22 722.168V1040H3568.27V400.154Z" fill="#123372"/>
</svg>
