<svg width="6445" height="1024" viewBox="0 0 6445 1024" fill="none" xmlns="http://www.w3.org/2000/svg">
<path d="M2446.96 1000L2250.42 630.816C2209.69 632.587 2173.39 633.472 2141.52 633.472H2104.34V1000H1959.58V23.92H2181.36C2293.8 23.92 2386.31 47.3813 2458.91 94.3039C2531.51 140.341 2567.81 215.595 2567.81 320.064C2567.81 385.579 2552.31 442.24 2521.33 490.048C2491.23 536.971 2446.07 573.269 2385.87 598.944L2618.27 1000H2446.96ZM2198.62 512.624C2285.39 512.624 2344.7 494.032 2376.58 456.848C2409.33 418.779 2425.71 373.627 2425.71 321.392C2425.71 205.413 2348.25 147.424 2193.31 147.424H2104.34V512.624H2198.62ZM2950.74 1013.28C2895.85 1013.28 2844.94 1000.44 2798.02 974.768C2751.98 948.208 2714.8 911.024 2686.47 863.216C2659.02 814.523 2645.3 757.861 2645.3 693.232C2645.3 629.488 2657.25 573.712 2681.15 525.904C2705.94 478.096 2740.91 440.912 2786.07 414.352C2831.22 387.792 2884.34 374.512 2945.43 374.512C2980.84 374.512 3014.04 380.709 3045.03 393.104C3076.01 405.499 3102.13 420.992 3123.38 439.584C3144.63 457.291 3158.79 474.997 3165.87 492.704L3168.53 390.448H3305.31V1000H3169.86L3167.2 892.432C3152.15 924.304 3124.71 952.635 3084.87 977.424C3045.03 1001.33 3000.32 1013.28 2950.74 1013.28ZM2974.64 893.76C3025.11 893.76 3067.6 876.496 3102.13 841.968C3136.66 806.555 3153.92 760.517 3153.92 703.856V694.56C3153.92 656.491 3145.95 622.405 3130.02 592.304C3114.08 562.203 3092.39 538.741 3064.95 521.92C3037.5 505.099 3007.4 496.688 2974.64 496.688C2917.98 496.688 2874.16 515.28 2843.17 552.464C2812.18 588.763 2796.69 636.128 2796.69 694.56C2796.69 753.877 2811.74 802.128 2841.84 839.312C2872.83 875.611 2917.1 893.76 2974.64 893.76ZM3321.56 390.448H3484.91L3616.38 665.344L3658.87 775.568L3701.37 665.344L3831.51 390.448H3990.87L3670.83 1000H3642.94L3321.56 390.448ZM4236.55 1013.28C4183.43 1013.28 4130.76 1003.98 4078.52 985.392C4026.29 966.8 3988.66 945.995 3965.64 922.976L4036.03 796.816C4054.62 813.637 4083.39 831.344 4122.35 849.936C4162.19 867.643 4200.26 876.496 4236.55 876.496C4283.48 876.496 4321.55 865.429 4350.76 843.296C4380.86 821.163 4395.91 790.619 4395.91 751.664C4395.91 721.563 4387.95 695.445 4372.01 673.312C4356.07 651.179 4336.6 633.029 4313.58 618.864C4290.56 603.813 4257.8 585.664 4215.31 564.416C4164.84 539.627 4130.31 521.035 4111.72 508.64C4025.84 451.093 3982.91 371.413 3982.91 269.6C3982.91 185.493 4010.79 121.307 4066.57 77.0399C4122.35 31.8879 4192.73 9.31193 4277.72 9.31193C4368.91 9.31193 4446.38 35.4293 4510.12 87.664L4439.74 208.512C4422.92 190.805 4399.01 175.755 4368.03 163.36C4337.92 150.08 4305.61 143.44 4271.08 143.44C4226.82 143.44 4191.84 153.621 4166.17 173.984C4141.38 193.461 4128.99 222.677 4128.99 261.632C4128.99 289.077 4136.95 313.867 4152.89 336C4168.83 357.248 4188.75 375.84 4212.65 391.776C4237.44 407.712 4270.64 427.189 4312.25 450.208C4352.09 472.341 4382.63 490.048 4403.88 503.328C4425.13 515.723 4445.05 530.773 4463.64 548.48C4489.32 571.499 4510.12 598.944 4526.06 630.816C4541.99 662.688 4549.96 697.659 4549.96 735.728C4549.96 795.045 4536.24 845.509 4508.79 887.12C4482.23 928.731 4445.05 960.16 4397.24 981.408C4350.32 1002.66 4296.76 1013.28 4236.55 1013.28ZM4890.45 1013.28C4835.56 1013.28 4784.65 1000.44 4737.73 974.768C4691.69 948.208 4654.51 911.024 4626.18 863.216C4598.73 814.523 4585.01 757.861 4585.01 693.232C4585.01 629.488 4596.96 573.712 4620.86 525.904C4645.65 478.096 4680.62 440.912 4725.78 414.352C4770.93 387.792 4824.05 374.512 4885.14 374.512C4920.55 374.512 4953.75 380.709 4984.74 393.104C5015.72 405.499 5041.84 420.992 5063.09 439.584C5084.34 457.291 5098.5 474.997 5105.58 492.704L5108.24 390.448H5245.02V1000H5109.57L5106.91 892.432C5091.86 924.304 5064.42 952.635 5024.58 977.424C4984.74 1001.33 4940.03 1013.28 4890.45 1013.28ZM4914.35 893.76C4964.82 893.76 5007.31 876.496 5041.84 841.968C5076.37 806.555 5093.63 760.517 5093.63 703.856V694.56C5093.63 656.491 5085.66 622.405 5069.73 592.304C5053.79 562.203 5032.1 538.741 5004.66 521.92C4977.21 505.099 4947.11 496.688 4914.35 496.688C4857.69 496.688 4813.87 515.28 4782.88 552.464C4751.89 588.763 4736.4 636.128 4736.4 694.56C4736.4 753.877 4751.45 802.128 4781.55 839.312C4812.54 875.611 4856.81 893.76 4914.35 893.76ZM5358.22 390.448H5501.64V500.672C5521.12 459.061 5549.45 427.632 5586.63 406.384C5624.7 385.136 5668.08 374.512 5716.78 374.512C5825.67 375.397 5892.51 413.024 5917.3 487.392C5936.78 452.864 5966 425.419 6004.95 405.056C6043.91 384.693 6085.07 374.512 6128.46 374.512C6192.2 374.512 6240.45 386.907 6273.21 411.696C6305.97 435.6 6327.66 470.128 6338.28 515.28C6349.79 559.547 6355.54 619.307 6355.54 694.56V1000H6210.79V693.232C6210.79 621.52 6203.27 570.171 6188.22 539.184C6174.05 508.197 6146.16 492.704 6104.55 492.704C6048.78 492.704 6006.28 511.739 5977.06 549.808C5948.73 586.992 5934.57 636.128 5934.57 697.216V1000H5791.14V671.984C5791.14 625.061 5789.37 590.091 5785.83 567.072C5782.29 544.053 5772.55 525.904 5756.62 512.624C5740.68 499.344 5715.01 492.704 5679.59 492.704C5648.61 492.704 5619.39 502 5591.94 520.592C5565.38 539.184 5543.69 564.416 5526.87 596.288C5510.94 627.275 5502.97 660.917 5502.97 697.216V1000H5358.22V390.448Z" fill="white"/>
<circle cx="512" cy="512" r="512" fill="white"/>
<circle cx="1280" cy="256" r="256" fill="white"/>
</svg>
